name Walk9.mot
datacolumns 19
datarows 15
range 1.68000000 1.75000000
endheader

                time	   L_ground_force_vx	   L_ground_force_vy	   L_ground_force_vz	   L_ground_force_px	   L_ground_force_py	   L_ground_force_pz	   R_ground_force_vx	   R_ground_force_vy	   R_ground_force_vz	   R_ground_force_px	   R_ground_force_py	   R_ground_force_pz	   L_ground_torque_x	   L_ground_torque_y	   L_ground_torque_z	   R_ground_torque_x	   R_ground_torque_y	   R_ground_torque_z	
          1.68000000	         -0.13206915	        683.93435888	         48.86603303	         -0.23388592	          0.00000000	         -0.08150811	         -0.05535329	          0.57814048	          0.02100015	          0.00001410	          0.00000000	          0.00001013	          0.00000000	          2.16694167	          0.00000000	          0.00000000	         -0.00858849	          0.00000000	
          1.68500000	          1.13632308	        692.32170806	         49.35714595	         -0.23189429	          0.00000000	         -0.08151277	         -0.03482521	          0.42686943	          0.01472877	         -0.00007357	          0.00000000	         -0.00004045	          0.00000000	          2.21404535	          0.00000000	          0.00000000	         -0.00549048	          0.00000000	
          1.69000000	          2.54861850	        701.26358999	         49.72880499	         -0.23003385	          0.00000000	         -0.08146212	          0.00148078	          0.13833544	          0.00313284	         -0.00020120	          0.00000000	         -0.00011433	          0.00000000	          2.24588521	          0.00000000	          0.00000000	          0.00001762	          0.00000000	
          1.69500000	          4.14420467	        710.69290580	         49.97810463	         -0.22830876	          0.00000000	         -0.08135989	          0.05791299	         -0.32865925	         -0.01533599	         -0.00037541	          0.00000000	         -0.00021545	          0.00000000	          2.26277437	          0.00000000	          0.00000000	          0.00860466	          0.00000000	
          1.70000000	          5.96278523	        720.51443110	         50.10676560	         -0.22672026	          0.00000000	         -0.08120996	          0.13876994	         -1.01634838	         -0.04224455	         -0.00060077	          0.00000000	         -0.00034656	          0.00000000	          2.26537434	          0.00000000	          0.00000000	          0.02093394	          0.00000000	
          1.70500000	          8.04200694	        730.60652146	         50.11997088	         -0.22526666	          0.00000000	         -0.08101654	          0.24774239	         -1.96337256	         -0.07899527	         -0.00087810	          0.00000000	         -0.00050826	          0.00000000	          2.25469618	          0.00000000	          0.00000000	          0.03757821	          0.00000000	
          1.71000000	         10.41664232	        740.82802711	         50.02505032	         -0.22394326	          0.00000000	         -0.08078486	          0.38711823	         -3.19800389	         -0.12656126	         -0.00120227	          0.00000000	         -0.00069774	          0.00000000	          2.23226843	          0.00000000	          0.00000000	          0.05889850	          0.00000000	
          1.71500000	         13.11777126	        751.02044899	         49.83122758	         -0.22274283	          0.00000000	         -0.08052195	          0.55671553	         -4.72885925	         -0.18512615	         -0.00155950	          0.00000000	         -0.00090716	          0.00000000	          2.19986619	          0.00000000	          0.00000000	          0.08488110	          0.00000000	
          1.72000000	         16.17189429	        761.00922845	         49.54972871	         -0.22165586	          0.00000000	         -0.08023525	          0.75252346	         -6.53284291	         -0.25361979	         -0.00192423	          0.00000000	         -0.00112184	          0.00000000	          2.15911513	          0.00000000	          0.00000000	          0.11492960	          0.00000000	
          1.72500000	         19.59966875	        770.60979802	         49.19337195	         -0.22067063	          0.00000000	         -0.07993123	          0.96505511	         -8.54025545	         -0.32914895	         -0.00225567	          0.00000000	         -0.00131825	          0.00000000	          2.11128994	          0.00000000	          0.00000000	          0.14761259	          0.00000000	
          1.73000000	         23.41545688	        779.63138556	         48.77408335	         -0.21977380	          0.00000000	         -0.07961512	          1.17745426	        -10.61732053	         -0.40633428	         -0.00249433	          0.00000000	         -0.00146197	          0.00000000	          2.05729710	          0.00000000	          0.00000000	          0.18037300	          0.00000000	
          1.73500000	         27.62696016	        787.88078940	         48.29934943	         -0.21895266	          0.00000000	         -0.07929133	          1.36345201	        -12.54683991	         -0.47658308	         -0.00255886	          0.00000000	         -0.00150576	          0.00000000	          1.99782592	          0.00000000	          0.00000000	          0.20921386	          0.00000000	
          1.74000000	         32.23528864	        795.16288022	         47.77146111	         -0.21819672	          0.00000000	         -0.07896383	          1.48534120	        -14.00831560	         -0.52735157	         -0.00234391	          0.00000000	         -0.00138836	          0.00000000	          1.93317109	          0.00000000	          0.00000000	          0.22838576	          0.00000000	
          1.74500000	         37.23466643	        801.27881096	         47.18689353	         -0.21749665	          0.00000000	         -0.07863538	          1.49222846	        -14.55969247	         -0.54148167	         -0.00171965	          0.00000000	         -0.00103406	          0.00000000	          1.86330715	          0.00000000	          0.00000000	          0.23011567	          0.00000000	
          1.75000000	         42.61237951	        806.02617780	         46.53560774	         -0.21684408	          0.00000000	         -0.07830767	          1.31893463	        -13.62387945	         -0.49673596	         -0.00053411	          0.00000000	         -0.00035404	          0.00000000	          1.78780619	          0.00000000	          0.00000000	          0.20443352	          0.00000000	
